Coordinates
version=1
nRows=21
nColumns=22
inDegrees=yes

Units are S.I. units (second, meters, Newtons, ...)
If the header above contains a line with 'inDegrees', this indicates whether rotational values are in degrees (yes) or radians (no).

endheader
time	pelvis_tilt	pelvis_list	pelvis_rotation	pelvis_tx	pelvis_ty	pelvis_tz	hip_flexion_r	hip_adduction_r	hip_rotation_r	knee_angle_r	ankle_angle_r	subtalar_angle_r	hip_flexion_l	hip_adduction_l	hip_rotation_l	knee_angle_l	ankle_angle_l	subtalar_angle_l	lumbar_extension	lumbar_bending	lumbar_rotation
      5.59000000	     -2.13817633	      1.12120092	    312.24303922	     -0.46550908	      1.00740568	      0.78786537	     23.71520660	     -9.33769227	     -3.69174142	    -44.21103493	      7.59760359	     11.68774913	      5.36788037	      9.11345988	     -3.00215490	    -11.54527045	      7.88182252	    -15.10466028	     -3.48055226	     -3.01690518	     -2.88961455
      5.60000000	     -2.16725044	      1.10859920	    313.38135034	     -0.46004012	      1.00708848	      0.79274234	     24.45137913	     -9.03007661	     -2.84695090	    -42.48857199	      7.66266044	     11.72710845	      4.81844919	      9.14771864	     -1.81295199	    -11.51049994	      8.15043396	    -15.21100392	     -3.54372185	     -2.99211084	     -3.15661900
      5.61000000	     -2.18939267	      1.09165274	    314.49994099	     -0.45453491	      1.00673227	      0.79763302	     25.11154173	     -8.74487569	     -2.05654097	    -40.68236621	      7.68259550	     11.81108046	      4.26998456	      9.16356393	     -0.64789892	    -11.49507267	      8.44385647	    -15.29180777	     -3.61367016	     -2.96476902	     -3.40984622
      5.62000000	     -2.20789404	      1.06705874	    315.60181141	     -0.44898535	      1.00634839	      0.80255196	     25.69172053	     -8.47754676	     -1.33772417	    -38.79324338	      7.66598847	     11.93287859	      3.72085156	      9.15532654	      0.48842179	    -11.49495094	      8.76015604	    -15.34620019	     -3.68891829	     -2.93336964	     -3.65255544
      5.63000000	     -2.22370955	      1.03240732	    316.68544205	     -0.44335337	      1.00594011	      0.80750301	     26.18859838	     -8.22548950	     -0.69610716	    -36.82107051	      7.62382706	     12.09150713	      3.16812986	      9.12314217	      1.60120885	    -11.51046090	      9.09767242	    -15.37666214	     -3.76451576	     -2.88980586	     -3.88168821
      5.64000000	     -2.23291854	      0.98225067	    317.75329285	     -0.43761097	      1.00551305	      0.81248136	     26.59694644	     -7.98443120	     -0.12286678	    -34.77555316	      7.57011496	     12.29732404	      2.60725415	      9.06727362	      2.68960939	    -11.54692123	      9.45200895	    -15.38424347	     -3.84328582	     -2.82810612	     -4.09949085
      5.65000000	     -2.22079583	      0.91138827	    318.79062017	     -0.43176138	      1.00508508	      0.81753365	     26.90722351	     -7.74704668	      0.41162202	    -32.66809550	      7.52777260	     12.59321854	      2.01368274	      8.99180551	      3.74500927	    -11.58685857	      9.82126188	    -15.36139307	     -3.93631193	     -2.75989052	     -4.28726301
      5.66000000	     -2.22696864	      0.84709503	    319.81203201	     -0.42581811	      1.00456943	      0.82262813	     27.17979497	     -7.51104414	      0.89723589	    -30.52029212	      7.46133204	     12.93271341	      1.45624469	      8.89212618	      4.77945496	    -11.66297377	     10.20828440	    -15.32157512	     -3.98841849	     -2.67684789	     -4.46757044
      5.67000000	     -2.25438693	      0.78508508	    320.81251024	     -0.41981037	      1.00396382	      0.82778574	     27.41952894	     -7.26782289	      1.33978947	    -28.34351828	      7.35323317	     13.31845199	      0.94024016	      8.76272596	      5.78237873	    -11.78307020	     10.60846659	    -15.27449781	     -4.00176932	     -2.57899576	     -4.63782062
      5.68000000	     -2.24519819	      0.70805009	    321.75840340	     -0.41373759	      1.00333543	      0.83306042	     27.57930352	     -7.02551260	      1.79728717	    -26.16235537	      7.28948652	     13.91707606	      0.37795484	      8.62810239	      6.74931669	    -11.89412880	     11.02483043	    -15.18061297	     -4.03934531	     -2.49288436	     -4.75208245
      5.69000000	     -2.26850871	      0.64117955	    322.68108307	     -0.40763189	      1.00257964	      0.83840233	     27.73719776	     -6.77466642	      2.21932231	    -23.99377449	      7.18049608	     14.56437626	     -0.12704386	      8.46493913	      7.68587827	    -12.04801757	     11.46268749	    -15.09111004	     -4.02736507	     -2.39305921	     -4.85858776
      5.70000000	     -2.29622340	      0.57452788	    323.57009048	     -0.40151921	      1.00173583	      0.84383448	     27.86968955	     -6.51999240	      2.63694541	    -21.85423147	      7.06004745	     15.32108882	     -0.60780720	      8.28379557	      8.58470198	    -12.23783995	     11.90613942	    -14.99369459	     -4.00410275	     -2.29553188	     -4.94712967
      5.71000000	     -2.35751908	      0.50224034	    324.44678351	     -0.39536561	      1.00078039	      0.84932875	     27.99111517	     -6.25266910	      3.02206067	    -19.74969576	      6.90244297	     16.04205252	     -1.04018914	      8.06449971	      9.44377849	    -12.46908825	     12.36636924	    -14.92129552	     -3.94597288	     -2.16860975	     -5.05090034
      5.72000000	     -2.37178463	      0.44645913	    325.26476911	     -0.38919616	      0.99976815	      0.85494933	     28.07475074	     -6.01885370	      3.48293715	    -17.72612003	      6.83195751	     17.01077968	     -1.52234587	      7.87584943	     10.28718204	    -12.66396825	     12.83859514	    -14.82084345	     -3.91510092	     -2.09552271	     -5.09959187
      5.73000000	     -2.41440669	      0.38828139	    326.07897256	     -0.38298509	      0.99865312	      0.86061324	     28.15049166	     -5.78769370	      3.93890603	    -15.76631228	      6.72960988	     17.90209493	     -1.95752632	      7.65880343	     11.08396224	    -12.90320193	     13.30359429	    -14.75164298	     -3.85767106	     -2.00091779	     -5.17297051
      5.74000000	     -2.45257502	      0.33329967	    326.87946344	     -0.37671179	      0.99746374	      0.86632904	     28.20550817	     -5.58263501	      4.42807685	    -13.90085247	      6.64771528	     18.76935129	     -2.39412492	      7.43879168	     11.84058597	    -13.14551465	     13.76637769	    -14.69858893	     -3.79848659	     -1.91115770	     -5.25030735
      5.75000000	     -2.48061575	      0.28885419	    327.66889553	     -0.37036464	      0.99620270	      0.87206931	     28.24856289	     -5.41856603	      4.95902272	    -12.15597104	      6.58831779	     19.57886568	     -2.83570508	      7.22747894	     12.54734800	    -13.38594716	     14.21501973	    -14.65949340	     -3.74001033	     -1.83468223	     -5.32926130
      5.76000000	     -2.50682307	      0.24526074	    328.46291662	     -0.36392206	      0.99488562	      0.87781378	     28.28196238	     -5.29103955	      5.50088143	    -10.55186552	      6.52852891	     20.23248588	     -3.27659327	      7.01196484	     13.19260653	    -13.63345530	     14.63281505	    -14.63458552	     -3.67777666	     -1.75507853	     -5.43057285
      5.77000000	     -2.49750281	      0.23407410	    329.24009577	     -0.35738837	      0.99352492	      0.88357612	     28.32231075	     -5.23358458	      6.08163873	     -9.14895476	      6.51719736	     20.81458739	     -3.74599870	      6.84037466	     13.77060388	    -13.85700753	     15.02816109	    -14.60696171	     -3.62614377	     -1.72717420	     -5.52322777
      5.78000000	     -2.45918476	      0.25244273	    330.00257420	     -0.35076033	      0.99212175	      0.88934340	     28.38667978	     -5.23777718	      6.65847265	     -7.99172113	      6.55404405	     21.31727879	     -4.23263712	      6.70735896	     14.26073959	    -14.07458177	     15.41498177	    -14.56467203	     -3.58287705	     -1.74139094	     -5.60486496
      5.79000000	     -2.40976885	      0.28221808	    330.77733621	     -0.34398306	      0.99071853	      0.89509588	     28.46398712	     -5.28723614	      7.15785165	     -7.07925924	      6.57351181	     21.65686875	     -4.73220200	      6.58203495	     14.66238093	    -14.28392274	     15.74044443	    -14.49258190	     -3.53503554	     -1.76631459	     -5.72078923
